<svg xmlns="http://www.w3.org/2000/svg" width="18.035" height="18.189" viewBox="0 0 18.035 18.189">
  <g id="Grupo_17" data-name="Grupo 17" transform="translate(0.018 -0.013)">
    <path id="Sustracción_1" data-name="Sustracción 1" d="M11.771,18.2H6.229a5.006,5.006,0,0,1-5-5V8.341A2,2,0,0,1-.008,6.654a1.953,1.953,0,0,1,.92-1.861L7.925.326a2,2,0,0,1,2.149,0l7.014,4.468a1.953,1.953,0,0,1,.92,1.861,1.994,1.994,0,0,1-1.237,1.687V13.2A5.005,5.005,0,0,1,11.771,18.2ZM9,6.712a3.536,3.536,0,1,0,3.47,3.536A3.507,3.507,0,0,0,9,6.712Z" transform="translate(0 0)" fill="#48e418"/>
  </g>
</svg>
