<svg id="interrogation" xmlns="http://www.w3.org/2000/svg" width="18" height="18" viewBox="0 0 18 18">
  <path id="Trazado_13" data-name="Trazado 13" d="M9,0a9,9,0,1,0,9,9A9,9,0,0,0,9,0ZM9,16.5A7.5,7.5,0,1,1,16.5,9,7.5,7.5,0,0,1,9,16.5Z" transform="translate(0 0)" fill="#48e418"/>
  <path id="Trazado_14" data-name="Trazado 14" d="M11.538,5.047A3,3,0,0,0,8,8,.75.75,0,0,0,9.5,8a1.5,1.5,0,0,1,1.778-1.475,1.518,1.518,0,0,1,1.2,1.2,1.5,1.5,0,0,1-.75,1.594,2.966,2.966,0,0,0-1.478,2.628V12.5a.75.75,0,0,0,1.5,0v-.557a1.486,1.486,0,0,1,.7-1.314,3,3,0,0,0-.91-5.582Z" transform="translate(-2 -1.25)" fill="#48e418"/>
  <g id="Trazado_15" data-name="Trazado 15" transform="translate(8 13)" fill="#48e418">
    <path d="M 1 1.5 C 0.7243000268936157 1.5 0.5 1.275699973106384 0.5 1 C 0.5 0.7243000268936157 0.7243000268936157 0.5 1 0.5 C 1.275699973106384 0.5 1.5 0.7243000268936157 1.5 1 C 1.5 1.275699973106384 1.275699973106384 1.5 1 1.5 Z" stroke="none"/>
    <path d="M 1 0 C 1.552279949188232 0 2 0.4477200508117676 2 1 C 2 1.552279949188232 1.552279949188232 2 1 2 C 0.4477200508117676 2 0 1.552279949188232 0 1 C 0 0.4477200508117676 0.4477200508117676 0 1 0 Z" stroke="none" fill="#48e418"/>
  </g>
</svg>
