<svg xmlns="http://www.w3.org/2000/svg" width="18" height="18" viewBox="0 0 18 18">
  <g id="me_gusta" data-name="me gusta" transform="translate(0.005 -0.917)">
    <path id="Trazado_5" data-name="Trazado 5" d="M13.118.917A4.763,4.763,0,0,0,9,3.57,4.763,4.763,0,0,0,4.872.917,5.328,5.328,0,0,0,0,6.584c0,5.446,8.214,11.737,8.563,12L9,18.917l.433-.329c.349-.265,8.563-6.557,8.563-12A5.328,5.328,0,0,0,13.118.917ZM9,16.938C6.556,14.984,1.5,10.185,1.5,6.584a3.772,3.772,0,0,1,3.374-4.06,3.772,3.772,0,0,1,3.374,4.06h1.5a3.772,3.772,0,0,1,3.374-4.06,3.772,3.772,0,0,1,3.374,4.06C16.492,10.187,11.434,14.984,9,16.938Z" transform="translate(0)" fill="#83f024"/>
  </g>
</svg>
