<svg id="Notificaciones" xmlns="http://www.w3.org/2000/svg" width="18" height="18" viewBox="0 0 18 18">
  <path id="Trazado_12" data-name="Trazado 12" d="M18.407,12.144,16.362,5.119A7.3,7.3,0,0,0,9.1,0a7.254,7.254,0,0,0-6.97,5.474L.55,12.257a2.169,2.169,0,0,0,.463,1.895,2.407,2.407,0,0,0,1.841.842H5.692a3.893,3.893,0,0,0,3.856,3,3.893,3.893,0,0,0,3.856-3h2.731a2.4,2.4,0,0,0,1.878-.888,2.165,2.165,0,0,0,.4-1.961Zm-8.86,4.348a2.356,2.356,0,0,1-2.216-1.5h4.432a2.356,2.356,0,0,1-2.216,1.5ZM16.76,13.2a.8.8,0,0,1-.63.3H2.854a.8.8,0,0,1-.614-.281.723.723,0,0,1-.154-.632L3.668,5.8A5.7,5.7,0,0,1,9.141,1.5a5.734,5.734,0,0,1,5.7,4.017l2.046,7.026a.716.716,0,0,1-.128.655Z" transform="translate(-0.494 0.004)" fill="#48E418"/>
</svg>
