<svg xmlns="http://www.w3.org/2000/svg" width="16.494" height="18" viewBox="0 0 16.494 18">
  <g id="power" transform="translate(-1)">
    <path id="Trazado_16" data-name="Trazado 16" d="M11.5,3.564h0a.731.731,0,0,0,.472.663,6.429,6.429,0,0,1,4.026,6.1,6.613,6.613,0,0,1-6.856,6.339A6.59,6.59,0,0,1,2.5,10.116,6.44,6.44,0,0,1,6.526,4.228.733.733,0,0,0,7,3.563H7a.708.708,0,0,0-.33-.594.78.78,0,0,0-.7-.071,7.8,7.8,0,0,0-4.794,8.826A8.165,8.165,0,0,0,9.247,18a8.165,8.165,0,0,0,8.074-6.276A7.8,7.8,0,0,0,12.527,2.9a.78.78,0,0,0-.7.07A.708.708,0,0,0,11.5,3.564Z" fill="#48e418"/>
    <rect id="Rectángulo_42" data-name="Rectángulo 42" width="2" height="8" rx="1" transform="translate(8.246)" fill="#48e418"/>
  </g>
</svg>
