<svg xmlns="http://www.w3.org/2000/svg" width="18" height="18.001" viewBox="0 0 18 18.001">
  <path id="share" d="M14.476,11A3.49,3.49,0,0,0,11.6,12.518l-4.876-2.2a3.434,3.434,0,0,0,0-2.616L11.6,5.482a3.5,3.5,0,1,0-.62-1.982,3.479,3.479,0,0,0,.06.59L5.861,6.445a3.5,3.5,0,1,0-.011,5.12l5.19,2.346a3.556,3.556,0,0,0-.059.589,3.5,3.5,0,1,0,3.5-3.5Zm0-9.5a2,2,0,1,1-2,2,2,2,0,0,1,2-2ZM3.49,11a2,2,0,1,1,2-2,2,2,0,0,1-2,2Zm10.987,5.5a2,2,0,1,1,2-2,2,2,0,0,1-2,2Z" transform="translate(0.026 0.001)" fill="#83f024"/>
</svg>
